<svg width="25" height="25" viewBox="0 0 25 25" fill="none" xmlns="http://www.w3.org/2000/svg">
<rect width="25" height="25" fill="white"/>
<path opacity="0.6" d="M12.0066 14.1534C11.5918 14.1534 11.2154 14.0753 10.8773 13.919C10.5393 13.7599 10.2708 13.5312 10.0719 13.233C9.87307 12.9318 9.77364 12.5682 9.77364 12.142C9.77364 11.767 9.8475 11.4631 9.99523 11.2301C10.143 10.9943 10.3404 10.8097 10.5876 10.6761C10.8347 10.5426 11.1074 10.4432 11.4057 10.3778C11.7069 10.3097 12.0094 10.2557 12.3134 10.2159C12.7111 10.1648 13.0336 10.1264 13.2807 10.1009C13.5307 10.0724 13.7126 10.0256 13.8262 9.96023C13.9427 9.89489 14.0009 9.78125 14.0009 9.61932V9.58523C14.0009 9.16477 13.8859 8.83807 13.6557 8.60511C13.4285 8.37216 13.0833 8.25568 12.6202 8.25568C12.1401 8.25568 11.7637 8.3608 11.491 8.57102C11.2182 8.78125 11.0265 9.00568 10.9157 9.24432L9.96114 8.90341C10.1316 8.50568 10.3589 8.19602 10.643 7.97443C10.9299 7.75 11.2424 7.59375 11.5805 7.50568C11.9214 7.41477 12.2566 7.36932 12.5861 7.36932C12.7964 7.36932 13.0378 7.39489 13.3106 7.44602C13.5861 7.49432 13.8518 7.59517 14.1074 7.74858C14.366 7.90199 14.5805 8.13352 14.7509 8.44318C14.9214 8.75284 15.0066 9.16761 15.0066 9.6875V14H14.0009V13.1136H13.9498C13.8816 13.2557 13.768 13.4077 13.6089 13.5696C13.4498 13.7315 13.2381 13.8693 12.9739 13.983C12.7097 14.0966 12.3873 14.1534 12.0066 14.1534ZM12.16 13.25C12.5577 13.25 12.893 13.1719 13.1657 13.0156C13.4413 12.8594 13.6486 12.6577 13.7878 12.4105C13.9299 12.1634 14.0009 11.9034 14.0009 11.6307V10.7102C13.9583 10.7614 13.8645 10.8082 13.7197 10.8509C13.5776 10.8906 13.4128 10.9261 13.2253 10.9574C13.0407 10.9858 12.8603 11.0114 12.6842 11.0341C12.5109 11.054 12.3702 11.071 12.2623 11.0852C12.0009 11.1193 11.7566 11.1747 11.5293 11.2514C11.3049 11.3253 11.1231 11.4375 10.9839 11.5881C10.8475 11.7358 10.7793 11.9375 10.7793 12.1932C10.7793 12.5426 10.9086 12.8068 11.1671 12.9858C11.4285 13.1619 11.7594 13.25 12.16 13.25Z" fill="black"/>
<path d="M14.5 14V14C14.5 14.8284 15.1716 15.5 16 15.5H16.5C17.6046 15.5 18.5 14.6046 18.5 13.5V10.5C18.5 7.73858 16.2614 5.5 13.5 5.5H12.5C9.18629 5.5 6.5 8.18629 6.5 11.5V13.5V13.5C6.5 14.6046 7.39543 15.5 8.5 15.5V15.5H9.5" stroke="black" stroke-opacity="0.6"/>
</svg>
